<svg id="レイヤー_1" data-name="レイヤー 1" xmlns="http://www.w3.org/2000/svg" viewBox="0 0 640.09 5999.18" preserveAspectRatio="none"><defs><style>.cls-1{fill:#c3c31b;}.cls-2{fill:#f5f29a;}</style></defs><title>wave</title><path class="cls-1" d="M0.46,6000.17v-99.1c5.16,0,9.94,0,14.72,0,33-.17,66-1.18,98.68,4.19,24.74,4.07,49.41,9.13,73.67,15.46,41.18,10.75,82.7,17.87,125.33,19.66a588.43,588.43,0,0,0,188.39-22.29c45.42-13,92-18.16,139.22-16.9v99H0.46Z" transform="translate(-0.36 -0.99)"/><path class="cls-1" d="M568.43,100.35c-2-.06-4-0.17-6-0.17H0.77V1.62c11.75,0,23.5-.26,35.24,0C81.29,2.83,124.88,13.57,168.3,25.23c35,9.41,70.77,13.57,107,15.07,39.89,1.65,79.63.22,118.92-6.5,23.7-4.05,47.05-10.34,70.37-16.36A516.54,516.54,0,0,1,577.43,1c5.8,0.05,11.59,0,17.39.16q22.82,0.46,45.64,1v98Z" transform="translate(-0.36 -0.99)"/><path class="cls-1" d="M640.46,5900.17H0.79v-98c7.57-.35,15.15-1,22.74-1,30.14-.18,60.26-0.5,90.32,2.75,28.4,3.07,56.14,9.15,83.58,16.72,40.74,11.24,82.05,18.13,124.37,19.71A720.27,720.27,0,0,0,420,5837c28.4-2.82,55.95-9.92,83.44-17.22s55.23-13.86,83.69-16.13c17.73-1.42,35.54-1.72,53.31-2.52v99Z" transform="translate(-0.36 -0.99)"/><path class="cls-1" d="M558.43,200.35c-2-.06-4-0.17-6-0.17H0.79V101.3c7.36,0,14.79-.23,22.2,0,41.48,1.47,81.94,9.16,121.81,20.34a512.55,512.55,0,0,0,121,18.65c43.4,1.52,86.57,0,129.21-8.35,23.14-4.52,45.93-10.9,68.81-16.67,34.35-8.66,69.26-13.08,104.61-14.31l72,1.18v98Z" transform="translate(-0.36 -0.99)"/><path class="cls-1" d="M640.46,5800.17H0.84v-97.33c10.84-.59,21.6-1.56,32.38-1.7,33.63-.43,67.37-1.22,100.67,4.16,24.26,3.92,48.42,9,72.18,15.26,41.49,10.9,83.32,18.17,126.3,19.78,60.64,2.27,120.19-3.27,178.67-20,33.34-9.52,67.29-16.11,102-18.25,9.13-.56,18.29-0.65,27.43-1v99Z" transform="translate(-0.36 -0.99)"/><path class="cls-1" d="M640.46,300.17H0.79V200.76c10.91,0.65,21.79,1.33,32.67,1.93,42.85,2.39,83.78,14.5,125.06,24.78a416.87,416.87,0,0,0,83.32,12c15.79,0.67,31.6,1.44,47.4,1.38,47.46-.18,94.19-6,140-18.9C464.36,212,500,204.45,536.5,202.16c7.31-.46,14.62-0.78,21.93-1.17l82,2.18v97Z" transform="translate(-0.36 -0.99)"/><path class="cls-1" d="M640.46,5700.17H0.82V5604c6.16-.6,12.52-1.67,18.9-1.75,27.79-.37,55.59-1,83.37-0.52,46.82,0.82,91.73,12.89,136.65,24.66,33.14,8.69,66.95,12.26,101.1,13.87,32.69,1.53,65.21,0,97.7-3.19,27.73-2.75,54.69-9.41,81.52-16.64,33.79-9.1,67.94-16.16,103-18.35,5.81-.36,11.63-0.62,17.44-0.93v99Z" transform="translate(-0.36 -0.99)"/><path class="cls-1" d="M640.46,400.17H0.78V301c11.67,0.9,23.22,1.68,34.75,2.7,35.81,3.16,70.29,12.77,104.9,21.75a432.31,432.31,0,0,0,92.09,14c16,0.62,31.94,1.43,47.91,1.36a532.63,532.63,0,0,0,143.35-20c36.59-10.34,73.75-17.62,111.93-19,35-1.24,69.9-1.73,104.74,2.33v96Z" transform="translate(-0.36 -0.99)"/><path class="cls-1" d="M640.46,500.17H0.81V401.54c11.15,1,22,1.82,32.9,3,32,3.59,63,12.05,94,20.17a496,496,0,0,0,95.43,14.91A685.31,685.31,0,0,0,334.33,437c27.23-2.75,53.72-9.26,80.06-16.37,34-9.17,68.22-16.95,103.43-18.35,27.92-1.11,55.92-.71,83.87-0.29,12.94,0.2,25.85,2,38.77,3.14v95Z" transform="translate(-0.36 -0.99)"/><path class="cls-1" d="M640.46,5600.17H0.82v-95.31c10.31-.93,20.81-2.42,31.34-2.73,23-.67,46-1.25,68.92-0.92,39.77,0.56,78.71,7.15,117.18,17.17,23,6,46.12,11.78,69.5,15.79,19.77,3.39,40,4.53,60,5.9,33.47,2.3,66.87.35,100.2-3,27.56-2.76,54.36-9.32,81-16.48,34-9.12,68.27-16.3,103.47-18.5,2.64-.17,5.31,0,8,0.07v98Z" transform="translate(-0.36 -0.99)"/><path class="cls-1" d="M640.46,5500.17H0.76V5406c13.84-1.37,27.51-3.4,41.24-3.91,22.63-.85,45.3-1.23,67.94-0.9,38.77,0.56,76.79,6.66,114.34,16.33,24.14,6.22,48.35,12.52,72.89,16.71,37.65,6.43,75.77,7.25,114,6.31,49.82-1.24,98-11.46,145.75-24.53,27.34-7.48,55.29-11.74,83.56-13.84v98Z" transform="translate(-0.36 -0.99)"/><path class="cls-1" d="M640.46,600.17H0.83V502.46c5.1,0.4,10.3.76,15.5,1.22,35.79,3.22,70.3,12.68,104.87,21.76s69.51,13.22,105,14.84c32.52,1.48,64.87,0,97.21-3.15,27.74-2.7,54.69-9.34,81.52-16.5,36.57-9.76,73.45-17.34,111.44-18.81,38.81-1.5,77.54-1.35,116.16,3.35l7.91,1v94Z" transform="translate(-0.36 -0.99)"/><path class="cls-1" d="M640.46,700.17H0.8V602.76c11.71,1.63,23.45,2.56,34.88,5Q72,615.51,108,624.61a522.39,522.39,0,0,0,95.93,15,700,700,0,0,0,103.23-1.73c30.11-2.58,59.42-9.43,88.49-17.32C429.6,611.38,463.9,604,499.1,602.17c33.43-1.77,66.9-2.36,100.3.87,13.72,1.33,27.38,3.4,41.06,5.13v92Z" transform="translate(-0.36 -0.99)"/><path class="cls-1" d="M640.46,5400.17H0.79V5307.9c8-1.18,16.13-2.57,24.32-3.57,33.83-4.1,67.84-3.91,101.79-3,39.76,1.07,78.7,8.13,116.94,18.88a534.59,534.59,0,0,0,126.82,20.14c39.39,1.36,78.65.3,117.44-6.36,25.35-4.35,50.26-11.26,75.3-17.33,25.41-6.16,50.91-11.65,77.06-13.49v97Z" transform="translate(-0.36 -0.99)"/><path class="cls-1" d="M640.46,5300.17H0.81v-90.65c11.56-1.75,23.16-3.8,34.84-5.23,33.32-4.09,66.83-3.87,100.28-3,36.71,1,72.8,6.92,108.3,16.45,29.22,7.85,58.46,15.7,88.64,19,14.71,1.59,29.51,2.45,44.28,3.41,30.65,2,61.22.38,91.76-2.21,28.77-2.44,56.81-8.76,84.63-16.17,27.34-7.28,54.79-14,82.95-17.36,1.32-.16,2.65-0.17,4-0.24v96Z" transform="translate(-0.36 -0.99)"/><path class="cls-1" d="M640.46,800.17H0.77v-96.4c10.44,1.64,20.83,2.67,30.94,5,27.56,6.25,55,13,82.47,19.64,30.7,7.47,61.93,10.39,93.41,11.9,32.36,1.56,64.56,0,96.72-3.16,27.9-2.75,55-9.38,82-16.65,33.65-9.07,67.63-16.78,102.53-18.15,28.09-1.11,56.3-1.31,84.38-.15,21.2,0.88,42.28,4.53,63.41,7a27.4,27.4,0,0,1,3.84,1v90Z" transform="translate(-0.36 -0.99)"/><path class="cls-1" d="M640.46,900.17H0.84V804.12c22.09,4.91,43.83,9.65,65.54,14.58,22.53,5.11,44.84,11.46,67.58,15.3,20.43,3.45,41.29,4.57,62,6.09,30.63,2.25,61.21.36,91.75-2.17,30-2.48,59.11-9.28,88-17.1,36.7-9.94,73.75-17.44,111.88-19,38.8-1.56,77.55-1.58,116.12,3.46,12.33,1.61,24.5,4.54,36.74,6.87v88Z" transform="translate(-0.36 -0.99)"/><path class="cls-1" d="M640.46,5200.17H0.69c-0.08-1.85-.22-3.45-0.22-5.05,0-26,.08-52-0.11-78,0-4.1,1-5.44,5.23-6.36,48.43-10.55,97.44-10.66,146.61-9,42.08,1.44,82.73,10.58,123.08,21.61,37.4,10.23,75.49,15.44,114.24,16.89,45.24,1.68,90.21-.13,134.6-9.36,22.61-4.7,44.83-11.27,67.36-16.37,16.21-3.67,32.64-6.3,49-9.4v95Z" transform="translate(-0.36 -0.99)"/><path class="cls-1" d="M640.46,5100.17H0.77v-86.35c11-2.2,22.12-5.28,33.43-6.5,24.13-2.6,48.32-5.11,72.55-6,31.11-1.19,62.38-1.1,93.2,4,24.42,4,48.79,8.94,72.71,15.22,41.66,10.94,83.67,18.28,126.82,19.88,60.49,2.25,119.87-3.35,178.26-19.8,19.5-5.49,39.56-9,59.37-13.43,1.13-.25,2.23-0.63,3.34-1v94Z" transform="translate(-0.36 -0.99)"/><path class="cls-1" d="M640.46,1000.17H0.81V906.29c11.85,2.45,23.67,4.67,35.37,7.36,29.64,6.82,59,14.85,88.9,20.45,20,3.75,40.63,4.51,61,6,30.63,2.22,61.22.43,91.75-2.15,28.77-2.43,56.83-8.65,84.62-16.18,35.23-9.55,70.73-18,107.31-19.43,28.59-1.12,57.25-.85,85.87-0.29s56.94,5.2,84.79,12.13v86Z" transform="translate(-0.36 -0.99)"/><path class="cls-1" d="M640.46,1100.17H0.82V1008c11.5,2.55,22.94,5,34.34,7.64,26.72,6.2,53.23,13.54,80.19,18.42,20.21,3.66,41,4.54,61.52,6,30.63,2.23,61.21.38,91.76-2.17,30.12-2.52,59.42-9.38,88.49-17.24,36.54-9.88,73.44-17.33,111.42-18.84,38.81-1.55,77.59-1.78,116.12,3.52,17.43,2.4,34.61,6.65,51.9,10.06l3.91,0.76v84Z" transform="translate(-0.36 -0.99)"/><path class="cls-1" d="M640.46,5000.17H0.8v-83.78c24.37-6.26,49.08-11.73,74.35-13.06,27.74-1.47,55.56-2.24,83.34-2,39.63,0.29,78.51,6.75,116.74,17.11,31.15,8.44,62.41,16.48,94.67,19.32,30,2.64,60.1,4.69,90.25,2.43,21.71-1.63,43.66-2.23,65-6.06,28.59-5.12,56.69-13,85-19.52,10-2.32,20.17-4.28,30.26-6.4v92Z" transform="translate(-0.36 -0.99)"/><path class="cls-1" d="M640.46,1200.17H0.84v-90.52c19.9,5,39.57,9.81,59.16,14.91a502.44,502.44,0,0,0,95.89,15.09,698.06,698.06,0,0,0,103.21-1.73c30.27-2.61,59.72-9.53,89-17.45,33.77-9.15,67.9-16.82,102.95-18.17,28.25-1.08,56.58-.82,84.86-0.27,35,0.67,69,7.44,102.73,16.42a17.36,17.36,0,0,1,1.86.72v81Z" transform="translate(-0.36 -0.99)"/><path class="cls-1" d="M640.46,4900.17H0.82c-0.13-1.48-.35-2.74-0.35-4,0-24.33.05-48.66-.09-73,0-3.28,1-4.58,4.14-5.4,32.78-8.48,65.92-14.53,99.85-15.91,36-1.46,71.9-1.58,107.75,2.29,28.53,3.08,56.36,9.61,83.95,17.22a530.61,530.61,0,0,0,122.47,19c39.56,1.42,79,.29,117.92-6.4,25.18-4.32,49.89-11.39,74.81-17.19,9.71-2.26,19.45-4.39,29.18-6.58v90Z" transform="translate(-0.36 -0.99)"/><path class="cls-1" d="M640.46,4800.17H0.77v-78.88c8.64-2.21,17.57-4.56,26.53-6.78,26.71-6.62,53.8-11.4,81.29-12.34s55.26-.7,82.88-0.16c30.05,0.59,59.56,5.69,88.72,12.87,24.05,5.92,48,12.53,72.29,17.17,19.71,3.76,39.85,5.5,59.87,7.27,14.4,1.27,28.92,1.45,43.4,1.53,50.87,0.26,100.87-6.09,149.86-20.14,11.49-3.29,23.23-5.72,34.85-8.54v88Z" transform="translate(-0.36 -0.99)"/><path class="cls-1" d="M640.46,1300.17H0.77V1212c11.51,2.84,23,5.32,34.28,8.52a528.69,528.69,0,0,0,124.89,19.87,715,715,0,0,0,98.72-3.39c26.88-2.7,53-9.25,79.06-16.24,36.73-9.86,73.78-17.43,112-18.91,38.83-1.51,77.68-2.07,116.15,3.67,24.12,3.6,47.83,10,71.72,15.12,1,0.21,1.94.38,2.91,0.56v79Z" transform="translate(-0.36 -0.99)"/><path class="cls-1" d="M640.46,1400.17H0.76v-86c13.6,3.5,27,6.87,40.28,10.37a497.08,497.08,0,0,0,95.92,15.1,700,700,0,0,0,103.25-1.74c30.12-2.59,59.42-9.45,88.51-17.34,33.95-9.21,68.26-16.47,103.46-18.45,66-3.7,131.48-.68,195.4,18.36,4.28,1.27,8.58,2.46,12.88,3.69v76Z" transform="translate(-0.36 -0.99)"/><path class="cls-1" d="M640.46,4700.17H0.46c0-1.75,0-3.33,0-4.91,0-22.16.1-44.32-.1-66.47,0-3.9,1.17-5.28,4.94-6.26,28-7.28,56-14.72,84.86-17.81,15.21-1.63,30.49-3.08,45.77-3.4,31.12-.65,62.24-0.77,93.29,2.65,27.7,3,54.81,8.9,81.57,16.3,41.54,11.49,83.63,18.59,126.8,20.09,39.55,1.37,79,.28,117.91-6.41,25.18-4.32,49.88-11.37,74.8-17.21,3.4-.8,6.77-1.7,10.16-2.56v86Z" transform="translate(-0.36 -0.99)"/><path class="cls-1" d="M640.46,4600.17H0.81v-73.74c2.14-.61,4.73-1.48,7.38-2.09,25.42-5.88,50.67-12.84,76.35-17.21,21.24-3.61,43-5.14,64.53-5.82,32.94-1,66-1.43,98.68,3.94,24.74,4.07,49.42,9.11,73.67,15.44,41.35,10.8,83,18.19,125.83,19.67,39.89,1.38,79.61.15,118.91-6.54,23.21-3.95,46-10.48,69-15.81,1.75-.41,3.55-0.56,5.33-0.83v83Z" transform="translate(-0.36 -0.99)"/><path class="cls-1" d="M640.46,1500.17H0.8v-83.49c9,2.29,17.9,4.39,26.69,6.82,37.22,10.3,75.16,15.29,113.72,16.81,39.89,1.57,79.63.26,118.92-6.52,24.68-4.26,49-10.82,73.29-17,39.38-10,79.28-15.66,119.94-15.71,26.64,0,53.25-.06,79.83,2.71,28.9,3,57,9.47,85,16.82,7.39,1.94,14.82,3.72,22.23,5.58v74Z" transform="translate(-0.36 -0.99)"/><path class="cls-1" d="M640.46,1600.17H0.76v-81c11,2.75,21.93,5.41,32.82,8.21,31.59,8.12,63.8,11.23,96.28,12.88,30.52,1.55,60.91.14,91.29-2.38,29.79-2.48,58.79-9.26,87.54-17.06,36.71-10,73.77-17.45,111.92-19,38.82-1.56,77.69-2.3,116.12,3.66,26.57,4.12,52.69,11.15,79,16.93,8.26,1.82,16.49,3.82,24.73,5.73v72Z" transform="translate(-0.36 -0.99)"/><path class="cls-1" d="M640.46,4500.17H0.79v-71.63c5.15-1.26,10.56-2.65,16-3.9,25.76-6,51.33-13,77.35-17.47,21.23-3.64,43-5.14,64.51-5.87,33.62-1.14,67.4-1.29,100.69,4.13,25.07,4.09,50,9.65,74.57,16,40.42,10.5,81.19,17.45,123,18.87,43.4,1.47,86.54-.24,129.23-8.33,18.26-3.46,36.23-8.51,54.33-12.83v81Z" transform="translate(-0.36 -0.99)"/><path class="cls-1" d="M640.46,4400.17H0.79v-69.42c8.68-2.11,17.49-4.34,26.34-6.4,25.42-5.89,50.67-12.84,76.36-17.22,21.24-3.62,43-5.15,64.54-5.83,32.94-1,66-1.43,98.69,3.93,24.74,4.07,49.42,9.1,73.68,15.44,41.35,10.8,83,18.19,125.84,19.68,39.9,1.38,79.58,0,118.93-6.49,18.62-3.05,36.87-8.39,55.29-12.69v79Z" transform="translate(-0.36 -0.99)"/><path class="cls-1" d="M640.46,1700.17H0.78V1621.8c12.12,2.86,24.18,5.76,36.27,8.54a394.32,394.32,0,0,0,69.19,9.07c16.29,0.8,32.6,1.47,48.91,1.41,47.47-.17,94.21-6,140-18.87,35.14-9.88,70.71-18.11,107.29-19.58,28.09-1.13,56.26-.93,84.39-0.44,43.61,0.75,85.6,11.29,127.43,22.51,8.63,2.31,17.47,3.85,26.22,5.74v70Z" transform="translate(-0.36 -0.99)"/><path class="cls-1" d="M640.46,1800.17H0.8v-76c7.23,1.67,14.46,3.26,21.65,5,29.24,7.09,59,9.51,89,11.05,32.52,1.67,64.88.06,97.22-3.09,29.08-2.84,57.26-10.08,85.39-17.52,27.85-7.37,55.88-14.33,84.71-16q42.59-2.47,85.32-2.37c45.24,0.17,89.2,9.16,132.69,21.05,14.39,3.94,29.12,6.61,43.7,9.86v68Z" transform="translate(-0.36 -0.99)"/><path class="cls-1" d="M640.46,4300.17H0.76v-67.45c9-2,18-4.07,27-6.15,28.52-6.59,56.83-14.34,85.61-19.45,21.36-3.79,43.29-5.11,65-5.84,33.29-1.12,66.73-1.25,99.7,4.12,24.42,4,48.71,9.26,72.65,15.51,40.72,10.63,81.79,17.87,123.95,19.44,32.7,1.21,65.32.62,97.7-3.49,22-2.79,43.76-8.1,65.62-12.27,0.81-.15,1.63-0.28,2.45-0.41v76Z" transform="translate(-0.36 -0.99)"/><path class="cls-1" d="M640.46,1900.17H0.77v-73.52c8.48,1.81,16.91,4.15,25.49,5.34,20.08,2.78,40.19,5.69,60.39,7.26,18.4,1.43,36.93,1.76,55.39,1.53a526.72,526.72,0,0,0,138.37-20c33.83-9.63,68.2-17,103.42-18.45,27.59-1.12,55.27-.9,82.89-0.46C512,1802.58,555.52,1814,599,1825.4c13.65,3.57,27.62,5.88,41.45,8.76v66Z" transform="translate(-0.36 -0.99)"/><path class="cls-1" d="M640.46,4200.17H0.79v-65.61c40.93-9.33,81.71-19.62,122.92-27.61,21.1-4.09,43-5,64.55-5.65,29.61-.9,59.25-0.61,88.82,2.65,27.87,3.08,55.15,9,82.08,16.41,41.39,11.44,83.34,18.49,126.34,20,39.56,1.38,78.87-.29,118-6.24,12.44-1.89,24.67-5.25,37-7.94v74Z" transform="translate(-0.36 -0.99)"/><path class="cls-1" d="M640.46,4100.17H0.84v-64.23c7.74-1.39,15.79-2.46,23.65-4.32,23.29-5.53,46.5-11.36,69.74-17.09a466.81,466.81,0,0,1,108.69-13.46c28.47-.22,56.92-0.18,85.27,3,27,3,53.48,8.93,79.66,16,37.49,10.18,75.34,17.49,114.28,19.59,46.06,2.48,91.79.77,137.3-6.61,7-1.14,14-2.61,21-3.92v71Z" transform="translate(-0.36 -0.99)"/><path class="cls-1" d="M640.46,2000.17H0.83V1929c9.36,1.76,18.58,4.07,27.93,5.15,20.31,2.33,40.67,4.48,61.07,5.9,33.47,2.32,66.86.36,100.19-3,27.56-2.76,54.34-9.36,81-16.48,36.56-9.76,73.45-17.32,111.45-18.79,38.82-1.5,77.69-2.25,116.11,3.68,26.56,4.1,52.64,11.24,79,17q29.71,6.45,59.46,12.7a16.69,16.69,0,0,0,3.45,0v65Z" transform="translate(-0.36 -0.99)"/><path class="cls-1" d="M640.46,2100.17H0.76v-69c8.37,1.36,16.61,3.07,24.94,4,16.86,1.86,33.75,4.35,50.66,4.66,28.27,0.52,56.59.26,84.84-1,32.69-1.46,64.56-8.54,96.11-17,29.57-8,59.32-14.94,89.89-18.11,29.58-3.07,59.21-2.95,88.85-2.49,41.15,0.63,81.44,7.48,121.08,18.39,27.42,7.54,55.08,14,83.34,17.6v63Z" transform="translate(-0.36 -0.99)"/><path class="cls-1" d="M640.46,4000.17H0.82v-62.93c11-1.85,22.06-3.18,32.88-5.66,24.61-5.65,49.1-11.85,73.63-17.85a446.24,446.24,0,0,1,101.81-12.6c28.3-.29,56.58-0.37,84.82,2.6,28.89,3,57.12,9.17,85,16.86,41.07,11.32,82.7,18.24,125.36,19.75a662.16,662.16,0,0,0,118.46-6.17c5.9-.85,11.77-2,17.65-3v69Z" transform="translate(-0.36 -0.99)"/><path class="cls-1" d="M640.46,3900.17H0.77v-62c9-1.21,18.36-1.77,27.35-3.77,28.39-6.31,56.71-13,85-19.85a476.18,476.18,0,0,1,109.23-13.46c28.31-.2,56.6-0.17,84.79,3,27.7,3.13,54.78,9.27,81.62,16.54,36.53,9.9,73.45,16.93,111.38,19,46.23,2.57,92.14.9,137.85-6.46a16,16,0,0,1,2.48,0v67Z" transform="translate(-0.36 -0.99)"/><path class="cls-1" d="M640.46,2200.17H0.79v-67c11.22,1.48,22.22,3.25,33.3,4.34a738.16,738.16,0,0,0,104.23,2.43c47-2,92-13.51,137.11-25.15,36.43-9.4,73.56-13.47,111.16-13.74,30.82-.22,61.71-0.53,92.2,4.33,22.8,3.64,45.48,8.43,67.87,14.09,31,7.83,61.93,15.48,93.8,18.72v62Z" transform="translate(-0.36 -0.99)"/><path class="cls-1" d="M640.46,2300.17H0.81v-65.45c7.65,0.9,15.31,1.91,23,2.7,40.5,4.18,81,4.24,121.63,1.26,39.6-2.91,77.62-13.05,115.77-22.9,39.2-10.12,79.06-14.72,119.54-14.79,29.48-.05,59-0.37,88.16,4.39,23.93,3.91,47.72,9.06,71.25,14.93,32,8,63.88,15.92,96.91,18.15a24.14,24.14,0,0,1,3.38.71v61Z" transform="translate(-0.36 -0.99)"/><path class="cls-1" d="M640.46,3800.17H0.82v-61.24c7.6-.87,15.32-1.79,23.05-2.62,25.55-2.74,50.35-9.12,75.09-15.69,36.58-9.72,73.45-17.33,111.45-18.8,38.82-1.5,77.68-2.25,116.12,3.67,26.23,4,52.21,10.26,77.94,16.89,39.15,10.08,78.67,16.42,119.11,18a696.8,696.8,0,0,0,115-5.5,8.92,8.92,0,0,0,1.86-.67v66Z" transform="translate(-0.36 -0.99)"/><path class="cls-1" d="M640.46,3700.17H0.79v-60.36c13.37-1.49,26.71-2.15,39.71-4.6,22.85-4.3,45.67-9,68.19-14.78,34.07-8.7,68.28-16.34,103.48-18.31,66-3.7,131.4-.46,195.4,18.28a506.79,506.79,0,0,0,125.77,20,687.79,687.79,0,0,0,102.16-4c1.64-.19,3.31-0.11,5-0.16v64Z" transform="translate(-0.36 -0.99)"/><path class="cls-1" d="M640.46,2400.17H0.84v-64.08c8.1,0.79,16,1.61,23.92,2.32,46.93,4.18,93.88,4.06,140.39-3.36,27.66-4.41,54.95-11.46,82.16-18.28,39.41-9.89,79.27-15.64,119.92-15.7,26.64,0,53.25-.07,79.82,2.69,28.89,3,57.07,9.31,85,16.83,34.92,9.39,70.14,17,106.41,18.65,0.66,0,1.32,0,2-.06v61Z" transform="translate(-0.36 -0.99)"/><path class="cls-1" d="M640.46,3600.17H0.82v-60c11.3-.94,22.56-1.79,33.81-2.83,28.42-2.62,56-9.41,83.5-16.74,36.56-9.76,73.46-17.3,111.45-18.77,38.82-1.49,77.69-2.24,116.11,3.69,26.56,4.1,52.84,10.47,78.91,17.17,38.67,9.93,77.71,16.14,117.65,17.66a708.47,708.47,0,0,0,95.21-3.08c1-.1,2-0.06,3-0.09v63Z" transform="translate(-0.36 -0.99)"/><path class="cls-1" d="M640.46,3500.17H0.8v-59.6c10.19-.7,20.26-1.43,30.34-2.06,31.36-2,61.86-8.69,92.12-16.73,29.59-7.87,59.31-14.93,89.88-18.09,29.74-3.08,59.53-2.93,89.33-2.48,42.18,0.64,83.4,7.89,123.94,19.26a529.29,529.29,0,0,0,125.78,19.9,730.61,730.61,0,0,0,84.28-2.11c1.32-.11,2.66-0.05,4-0.07v62Z" transform="translate(-0.36 -0.99)"/><path class="cls-1" d="M640.46,2600.17H0.77v-61.94c7.48,0.43,14.89.71,22.28,1.3,32.13,2.58,64.19,1.24,96.27-1.09,37.22-2.71,73.09-12.05,108.95-21.53A476.18,476.18,0,0,1,348.69,2501c30.16-.11,60.4-0.76,90.22,4.22,24.88,4.15,49.72,9.15,74.12,15.52,41.87,10.94,84,18.91,127.43,19.4v60Z" transform="translate(-0.36 -0.99)"/><path class="cls-1" d="M96.47,2440.24c44.48-.46,87.72-8.72,130.44-20.51,28.21-7.79,56.74-14.66,86-16.23,30.31-1.63,60.75-2.87,91.07-2,41.34,1.16,81.83,8.85,121.7,20.13a528.8,528.8,0,0,0,59.11,13.25c18.35,3,37.08,3.63,55.64,5.31v60H0.7v-62.56l46.72,2.7a19,19,0,0,0,3.82.79q20.72,0.06,41.45-.05A18.6,18.6,0,0,0,96.47,2440.24Z" transform="translate(-0.36 -0.99)"/><path class="cls-1" d="M640.46,3400.17H0.83v-59c14.32-1,28.56-2,42.8-2.92,31.87-2.05,62.78-9.28,93.47-17.56,36.54-9.86,73.44-17.33,111.41-18.84,38.8-1.55,77.67-2.3,116.09,3.65,26.4,4.09,52.56,10.25,78.45,16.94,39,10.07,78.3,17.17,118.59,17.63,23.77,0.27,47.55-.55,71.33-0.87,2.49,0,5,0,7.48,0v61Z" transform="translate(-0.36 -0.99)"/><path class="cls-1" d="M640.46,2700.17H0.77v-61.11c8.63,0.38,17.2,1,25.77,1.07,19.8,0.12,39.62.53,59.39-.23,30.63-1.17,61-4.79,90.79-12.43,23.2-5.94,46.45-11.71,69.81-17,27-6.11,54.54-8.76,82.2-9.24,30.47-.53,60.93-0.6,91.32,2.7,28.4,3.08,56.1,9.31,83.58,16.74,36.54,9.88,73.44,17.5,111.43,18.86,8.47,0.3,16.93,1.08,25.39,1.63v59Z" transform="translate(-0.36 -0.99)"/><path class="cls-1" d="M640.46,2800.17H0.76v-60c5.49,0,10.91.05,16.32,0,23.29-.27,46.59-0.2,69.86-0.94,42.06-1.33,82.51-11.78,122.89-22.53A477.19,477.19,0,0,1,333.27,2701c29,0,58.06-.45,86.71,4.27,24.25,4,48.46,8.87,72.23,15.1,41.83,11,84,19.1,127.32,19.85,7,0.12,14,.63,20.93,1v59Z" transform="translate(-0.36 -0.99)"/><path class="cls-1" d="M640.46,3300.17H0.84v-58.8c13.38-.73,26.62-1.54,39.87-2.17,32-1.53,63.3-7.65,94.36-15.37,24.83-6.17,49.69-12.48,74.85-17a381.25,381.25,0,0,1,56.07-5.42c35.94-1.08,72.06-1.81,107.66,4,25.87,4.23,51.56,10,77,16.56,39.62,10.24,79.58,17.65,120.56,18.11,23.09,0.26,46.2-.57,69.3-0.9v61Z" transform="translate(-0.36 -0.99)"/><path class="cls-1" d="M640.46,3200.17H0.76v-59.26c2.11,0,4.19,0,6.28,0,30.5-.17,61-1.38,91-7.12,27.57-5.29,54.75-12.58,82-19.24a473.39,473.39,0,0,1,109.23-13.48c28.31-.2,56.6-0.16,84.8,3,27.54,3.09,54.47,9.16,81.14,16.4,36.86,10,74,18,112.38,19,24.28,0.61,48.57.53,72.86,0.75v60Z" transform="translate(-0.36 -0.99)"/><path class="cls-1" d="M640.46,2900.17H0.79V2840c4.79,0.31,9.52.81,14.26,0.88,37,0.54,74-.33,110.48-6.9,25.16-4.53,50-11.15,74.8-17.31,31.57-7.84,63.41-13.47,96-14.81,38.82-1.6,77.7-2.28,116.13,3.64,26.4,4.07,52.54,10.33,78.44,17,39,10,78.34,16.85,118.65,17.72,10.31,0.22,20.62.64,30.93,1v59Z" transform="translate(-0.36 -0.99)"/><path class="cls-1" d="M640.46,3000.17H0.77V2940.9c1.45,0,2.87,0,4.29,0,41.18,0.44,82.31-.7,122.78-9,25.54-5.25,50.73-12.21,76.09-18.37a457,457,0,0,1,103.35-12.44c31.31-.34,62.72-0.9,93.7,4.18,24.26,4,48.46,8.87,72.23,15.1,41.83,11,84,19.1,127.32,19.84,13.31,0.23,26.62.64,39.93,1v59Z" transform="translate(-0.36 -0.99)"/><path class="cls-1" d="M640.46,3100.17H0.76v-59.26c2.12,0,4.21,0,6.3,0,33.52,0.26,67-1,100-7.07,24.65-4.51,49-10.84,73.3-17,39.39-10.06,79.29-15.68,120-15.74,26.65,0,53.26-.06,79.84,2.7,28.57,3,56.5,9,84.08,16.61,41.4,11.44,83.33,19,126.37,19.81q22,0.4,44,.69a44.39,44.39,0,0,0,5.92-.7v60Z" transform="translate(-0.36 -0.99)"/><path class="cls-2" d="M96.47,2440.24a18.6,18.6,0,0,1-3.78.81q-20.72.11-41.45,0.05a19,19,0,0,1-3.82-.79Z" transform="translate(-0.36 -0.99)"/></svg>
